<?xml version="1.0" encoding="iso-8859-1"?>
<!-- Tạo bởi: An Kun Studio LLC, dưới dạng SVG . SVG Version: 9.03 Build 55982)  -->
<svg
  version="1.1"
  id="AKS_G1"
  xmlns="http://www.w3.org/2000/svg"
  xmlns:xlink="http://www.w3.org/1999/xlink"
  x="0px"
  y="0px"
  viewBox="0 0 750 750"
  style="enable-background:new 0 0 750 750;"
  xml:space="preserve"
>
  <linearGradient
    id="AKS_G1_"
    gradientUnits="userSpaceOnUse"
    x1="18.3956"
    y1="375"
    x2="731.6044"
    y2="375"
  >
    <stop offset="0" style="stop-color:#F9A1CF" />
    <stop offset="0.5" style="stop-color:#FFFF8C" />
    <stop offset="1" style="stop-color:#9FD0E4" />
  </linearGradient>
  <path
    style="fill:url(#AKS_G1_);"
    d="M729.848,494.697c-7.271-47.202-50.734-77.27-68.191-119.202
	c0.629-19.142,22.136-36.617,31.556-52.757c14.106-19.369,29.322-38.498,34.902-62.362c14.741-59.521-18.013-116.034-84.086-110.901
	c-26.34,0.991-51.636,12.694-68.9,32.737c-5.019,4.807-10.02,15.63-16.814,16.693c-4.521-1.141-6.19-6.718-8.623-10.592
	c-3.688-7.129-8.596-14.108-14.424-19.425c-27.995-24.96-72.583-24.814-104.764-7.958c-21.935,8.087-38.721,45.094-48.443,35.319
	c-20.283-37.982-52.887-52.092-95.52-45.538c-39.06,5.146-63.514,37.978-83.288,68.666c-19.553,27.422-39.311,55.137-59.011,82.426
	c-25.143,36.041-50.83,71.747-76.363,107.515c-17.499,26.28-40.247,50.671-46.856,82.416
	C2.796,578.72,82.824,630.572,156.013,582.594c21.336-14.589,33.642-37.247,48.803-57.484
	c16.819-23.528,33.523-47.077,50.068-70.611c6.753-6.52,30.815-53.295,39.562-41.821c22.756,36.596,49.191,71.433,74.818,106.165
	c20.19,26.51,37.85,59.019,70.746,71.382c32.29,12.081,74.296,9.951,98.826-16.57c8.412-6.31,10.55-22.423,20.483-24.835
	c6.316,1.558,11.344,11.55,16.469,16.391c7.153,7.999,15.323,14.523,24.602,19.544c70.801,36.222,143.396-7.73,129.489-89.876
	L729.848,494.697z M314.952,311.535c-47.849,68.158-96.574,135.507-144.729,203.446c-14.095,20.346-28.382,43.185-53.473,50.733
	c-18.568,6.371-40.715,1.564-53.591-13.571c-12.645-14.311-14.495-36.303-10.187-54.328c3.107-13.514,11.696-24.645,19.703-35.758
	c12.082-16.955,23.749-33.503,35.886-50.501c43.487-61.464,86.614-121.309,130.01-182.619
	c12.252-16.493,24.701-35.482,44.602-43.651c39.443-14.655,74.153,8.428,70.814,51.739c-0.706,29.693-23.557,51.014-38.931,74.359
	L314.952,311.535z M525.596,530.847c-4.661,17.317-19.669,30.528-37.233,34.162c-13.661,2.755-28.126-0.911-39.907-7.871
	c-21.453-12.44-35.585-35.37-49.386-54.978c-9.816-13.595-20.79-27.57-30.704-41.367c-9.893-13.866-20.78-27.24-30.43-41.444
	c-13.866-18.549-21.66-37.795-15.188-61.052c4.838-19.224,18.15-34.727,29.632-49.99c16.556-23.389,34.143-45.728,50.881-68.882
	c15.032-20.184,29.464-44.336,53.771-54.243c29.97-10.663,63.952,2.309,69.728,35.874c5.864,32.58-11.132,51.785-28.997,76.153
	c-11.41,14.856-22.674,30.121-33.506,45.535c-5.649,8.449-13.883,16.456-16.405,26.594c-2.56,10.032,4.034,19.042,9.899,26.502
	c4.568,5.947,9.111,11.787,13.603,17.89c13.265,18.07,26.379,36.193,39.765,54.251c6.038,8.736,11.882,17.143,14.466,27.642
	c2.514,11.183,2.67,24.068,0.052,35.057L525.596,530.847z M697.987,523.913c-4.117,26.458-30.569,46.659-57.134,41.597
	c-24.807-4.669-42.323-23.436-55.662-43.546c-14.388-19.899-29.054-39.206-43.4-59.204c-12.281-16.755-24.799-33.344-36.617-50.799
	c-10.847-14.483-14.031-31.684-11.119-49.613c2.839-19.938,16.868-34.662,27.783-50.604c13.244-17.979,26.316-35.807,39.229-54.009
	c8.515-11.528,17.363-23.671,25.997-35.438c9.751-13.549,20.982-27.553,36.502-34.828c22.807-11.455,57.053-7.122,68.851,17.885
	c18.07,36.911-2.927,64.157-24.34,92.936c-9.841,13.577-19.879,26.779-29.676,40.352c-6.417,9.558-14.65,18.526-19.702,28.869
	c-3.928,8.841,2.356,17.158,7.584,24.266c4.581,6.525,9.637,13.424,14.131,19.536c10.967,14.483,21.804,28.998,32.377,43.725
	c15.551,19.729,29.861,42.356,25.226,68.691L697.987,523.913z"
  />
  <linearGradient
    id="AKS_G1_00000112633356062521673960000014747432842717261216_"
    gradientUnits="userSpaceOnUse"
    x1="408.8005"
    y1="518.8"
    x2="414.6226"
    y2="518.8"
  >
    <stop offset="0" style="stop-color:#F9A1CF" />
    <stop offset="0.5" style="stop-color:#FFFF8C" />
    <stop offset="1" style="stop-color:#9FD0E4" />
  </linearGradient>
  <path
    style="fill:url(#AKS_G1_00000112633356062521673960000014747432842717261216_);"
    d="M414.051,521.834
	c-0.26-1.59-2.68-1.36-2.88-1.6c-0.39-0.47,0.14-1.85-0.3-2.72c-0.12-0.22-1.39-0.71-2.07-1.68c3.96-0.56,2.4,2.52,3.04,3.74
	c0.05,0.1,1.22-0.9,2.25,0.34C415.311,521.374,414.051,521.654,414.051,521.834z"
  />
</svg>